<?xml version="1.0" encoding="UTF-8" standalone="no"?>
<!-- Created with Inkscape (http://www.inkscape.org/) -->

<svg
   width="4.7624998mm"
   height="5.291667mm"
   viewBox="0 0 4.7624998 5.291667"
   version="1.1"
   id="svg1"
   xml:space="preserve"
   xmlns="http://www.w3.org/2000/svg"
   xmlns:svg="http://www.w3.org/2000/svg"><defs
     id="defs1" /><g
     id="layer1"
     transform="translate(-111.38958,-101.07085)"><g
       style="fill:none;stroke:#2ecc71;stroke-width:2;stroke-linecap:round;stroke-linejoin:round;stroke-opacity:1"
       id="g1"
       transform="matrix(0.26458333,0,0,0.26458333,110.59583,100.54167)"><path
         d="M 14,9.536 V 7 a 4,4 0 0 1 4,-4 h 1.5 A 0.5,0.5 0 0 1 20,3.5 V 5 a 4,4 0 0 1 -4,4 4,4 0 0 0 -4,4 c 0,2 1,3 1,5 a 5,5 0 0 1 -1,3"
         id="path1"
         style="stroke:#2ecc71;stroke-opacity:1" /><path
         d="M 4,9 A 5,5 0 0 1 12,13 5,5 0 0 1 4,9"
         id="path2"
         style="stroke:#2ecc71;stroke-opacity:1" /><path
         d="M 5,21 H 19"
         id="path3"
         style="stroke:#2ecc71;stroke-opacity:1" /></g></g></svg>
